<svg xmlns="http://www.w3.org/2000/svg" viewBox="0 0 64 64" role="img" aria-label="Ternary Expression Builder favicon">
  <defs>
    <linearGradient id="bg" x1="8" y1="4" x2="56" y2="60" gradientUnits="userSpaceOnUse">
      <stop offset="0" stop-color="#fffdf8"/>
      <stop offset="1" stop-color="#efe4d6"/>
    </linearGradient>
    <linearGradient id="teal" x1="14" y1="14" x2="50" y2="52" gradientUnits="userSpaceOnUse">
      <stop offset="0" stop-color="#0f766e"/>
      <stop offset="1" stop-color="#115e59"/>
    </linearGradient>
    <filter id="shadow" x="-20%" y="-20%" width="140%" height="140%">
      <feDropShadow dx="0" dy="4" stdDeviation="4" flood-color="#3e2a13" flood-opacity="0.18"/>
    </filter>
  </defs>

  <rect x="6" y="6" width="52" height="52" rx="16" fill="url(#bg)"/>
  <rect x="6.75" y="6.75" width="50.5" height="50.5" rx="15.25" fill="none" stroke="#543f2b" stroke-opacity="0.14" stroke-width="1.5"/>

  <g filter="url(#shadow)">
    <rect x="14" y="15" width="36" height="34" rx="8" fill="#fffbf5" stroke="#543f2b" stroke-opacity="0.16" stroke-width="1.5"/>
    <rect x="14" y="15" width="36" height="10" rx="8" fill="url(#teal)"/>
    <path d="M14 24.5H50" stroke="#115e59" stroke-width="1" opacity="0.28"/>

    <path d="M26 25V49M38 25V49" stroke="#543f2b" stroke-opacity="0.13" stroke-width="1.4"/>
    <path d="M14 33H50M14 41H50" stroke="#543f2b" stroke-opacity="0.13" stroke-width="1.4"/>

    <rect x="18" y="29" width="9" height="8" rx="2.2" fill="#0f766e" fill-opacity="0.12" stroke="#0f766e" stroke-opacity="0.28"/>
    <rect x="30" y="37" width="9" height="8" rx="2.2" fill="#b96a30" fill-opacity="0.14" stroke="#b96a30" stroke-opacity="0.28"/>
    <rect x="40.5" y="28.5" width="6" height="6" rx="1.8" fill="#2dd4bf" fill-opacity="0.9"/>
  </g>

  <text x="32" y="22.25" text-anchor="middle" font-family="Monaco, Menlo, Consolas, monospace" font-size="8.25" font-weight="700" fill="#ffffff">?:</text>
</svg>
